<?xml version="1.0" encoding="UTF-8"?>
<svg id="Layer_1" data-name="Layer 1" xmlns="http://www.w3.org/2000/svg" viewBox="0 0 2000 2000">
  <defs>
    <style>
      .cls-1 {
        fill: #231f20;
      }

      .cls-2 {
        fill: #1d9790;
      }

      .cls-3 {
        fill: #a9cc32;
      }
    </style>
  </defs>
  <g>
    <path d="M1000,1906.82c-120.94,0-238.26-23.69-348.71-70.4-106.68-45.12-202.48-109.72-284.76-191.99-82.27-82.27-146.86-178.08-191.99-284.75-46.71-110.45-70.4-227.77-70.4-348.71s23.69-238.26,70.4-348.71c45.12-106.68,109.72-202.48,191.99-284.75,82.27-82.28,178.08-146.87,284.76-191.99,110.45-46.71,227.77-70.4,348.71-70.4s238.26,23.69,348.71,70.4c106.68,45.12,202.48,109.71,284.76,191.99,82.27,82.27,146.87,178.08,191.98,284.75,46.72,110.45,70.4,227.77,70.4,348.71s-23.69,238.26-70.4,348.71c-45.12,106.67-109.71,202.48-191.98,284.75-82.27,82.28-178.08,146.87-284.76,191.99-110.45,46.71-227.77,70.4-348.71,70.4ZM1000,116.9c-120.7,0-237.79,23.64-348.01,70.26-106.47,45.03-202.08,109.49-284.19,191.6-82.11,82.11-146.58,177.72-191.6,284.19-46.62,110.22-70.26,227.31-70.26,348.01s23.64,237.79,70.26,348.01c45.03,106.46,109.5,202.08,191.6,284.19,82.11,82.11,177.73,146.58,284.19,191.61,110.22,46.62,227.31,70.26,348.01,70.26s237.79-23.64,348.01-70.26c106.47-45.03,202.08-109.5,284.19-191.61,82.11-82.11,146.58-177.72,191.61-284.19,46.62-110.22,70.26-227.31,70.26-348.01s-23.64-237.79-70.26-348.01c-45.03-106.47-109.5-202.08-191.61-284.19-82.11-82.11-177.72-146.58-284.19-191.6-110.22-46.62-227.31-70.26-348.01-70.26Z"/>
    <path class="cls-1" d="M1000,1908.96c-121.23,0-238.83-23.75-349.54-70.56-106.95-45.24-202.98-109.99-285.44-192.45-82.46-82.46-147.21-178.5-192.45-285.43-46.82-110.71-70.56-228.32-70.56-349.55s23.75-238.83,70.56-349.54c45.23-106.93,109.98-202.96,192.45-285.44,82.45-82.46,178.49-147.21,285.44-192.45,110.71-46.82,228.31-70.57,349.54-70.57s238.84,23.75,349.55,70.57c106.93,45.23,202.97,109.98,285.44,192.45,82.47,82.46,147.21,178.5,192.44,285.44,46.83,110.72,70.57,228.32,70.57,349.54s-23.75,238.84-70.57,349.55c-45.23,106.94-109.98,202.98-192.44,285.43-82.47,82.47-178.5,147.22-285.44,192.45-110.71,46.82-228.32,70.56-349.55,70.56ZM1000,119.05c-120.42,0-237.23,23.58-347.17,70.09-106.22,44.92-201.6,109.23-283.52,191.14-81.91,81.91-146.22,177.3-191.14,283.51-46.51,109.95-70.09,226.76-70.09,347.18s23.59,237.23,70.09,347.17c44.92,106.22,109.24,201.6,191.14,283.51,81.91,81.91,177.3,146.22,283.52,191.14,109.94,46.51,226.75,70.09,347.17,70.09s237.23-23.59,347.17-70.09c106.21-44.91,201.59-109.23,283.52-191.14,81.91-81.91,146.22-177.29,191.14-283.51,46.51-109.97,70.09-226.78,70.09-347.17s-23.59-237.21-70.09-347.18c-44.92-106.21-109.24-201.6-191.14-283.51-81.93-81.92-177.32-146.23-283.52-191.14-109.95-46.51-226.75-70.09-347.17-70.09Z"/>
  </g>
  <path class="cls-2" d="M1422.81,536.29l-252,249.48c-46.09-27.17-86.45-44.54-135.63-55.02l1.82-457.41c.11-28.4,3.46-52.13,22.98-71.47,15.27-15.13,40.48-24.26,68.14-18.66,37,7.49,75.79,10.43,112.54,22.73,91.51,30.63,178.32,71.94,256.03,126.7,19.37,13.65,29.78,39.61,32.82,57.18,3.78,21.84-8.8,43.2-24.85,60.13l-81.85,86.34Z"/>
  <path class="cls-3" d="M425.84,1526.04c-33.68,28.46-76.16,22.72-101.05-13.28-84.63-122.39-142.67-257.61-158-408.65-2-19.7,27.88-51.55,45.86-53.09,148.59-12.75,343.84-3.2,500.76-6.19,14.51,50.05,31.75,94.43,61.7,140.59-120.48,106.61-229.95,239.76-349.27,340.61Z"/>
  <path class="cls-2" d="M1672.85,1512.77c-28.98,38.31-78.92,38.77-109.52,8.38l-338.38-336.06c30.39-45.96,43.69-88.12,56.63-136.58l478.27-1.99c39.87-.17,76.68,28.65,71.05,73.21-18,142.51-70.57,277.38-158.05,393.04Z"/>
  <path class="cls-3" d="M1662.74,972.76l-102.74,2.78-275-2.7-56.28-137.89,330.12-330.13c17.14-17.14,31.77-30.7,55.22-29.17,18.21,1.19,41.28,8.76,55.28,28.92,81.34,117.21,141.44,249.52,160.13,393.38,11.85,91.23-144.25,74.2-166.72,74.81Z"/>
  <path class="cls-3" d="M960.11,729.88c-49.81,13.81-88.11,33.57-133.48,55.35-119.95-113.16-231.82-225.69-341.26-346.93-23.36-25.88-21.51-71.24,9.03-95.01,114.39-89.04,254.11-150.38,402.57-158.74,40.41-2.27,63.43,51.98,63.41,84.76l-.26,460.57Z"/>
  <path class="cls-2" d="M961.5,1757.27c.08,30.01-6.36,49.61-22.72,64.78-15.4,14.28-38.61,21.88-64.62,17.97-140.67-21.16-271.88-77.27-383.81-165.28-29.61-23.28-25.54-74.12.55-100.66l332.21-337.98c46.91,27.34,87.52,42.36,137.18,56.45l1.21,464.71Z"/>
  <path class="cls-2" d="M716.99,974.35l-469.13-2.69c-27.91-.16-46.31-6.6-62.17-23.43-15.59-16.53-21.73-38.27-17.04-65.8,22.56-132.5,74.82-257.32,153.22-365.29,13.81-19.02,28.24-34.53,46.06-37.37,20.65-3.29,46.11-.78,62.69,15.65l303.42,300.68c11.55,11.45,33.32,29.93,33.87,45.57-16.16,43.98-39.72,79.08-50.92,132.67Z"/>
  <g>
    <path d="M1000,1204.83c-106.9,0-193.87-86.97-193.87-193.87s86.97-193.87,193.87-193.87,193.86,86.97,193.86,193.87-86.96,193.87-193.86,193.87ZM1000,820.67c-104.93,0-190.3,85.37-190.3,190.3s85.37,190.3,190.3,190.3,190.3-85.37,190.3-190.3-85.37-190.3-190.3-190.3Z"/>
    <path class="cls-1" d="M1000,1205.69c-107.37,0-194.73-87.35-194.73-194.72s87.35-194.72,194.73-194.72,194.72,87.35,194.72,194.72-87.35,194.72-194.72,194.72ZM1000,817.96c-106.43,0-193.02,86.58-193.02,193.01s86.59,193.01,193.02,193.01,193.01-86.58,193.01-193.01-86.58-193.01-193.01-193.01ZM1000,1202.12c-105.41,0-191.16-85.75-191.16-191.15s85.75-191.15,191.16-191.15,191.14,85.75,191.14,191.15-85.74,191.15-191.14,191.15ZM1000,821.53c-104.46,0-189.45,84.99-189.45,189.44s84.99,189.44,189.45,189.44,189.43-84.99,189.43-189.44-84.98-189.44-189.43-189.44Z"/>
  </g>
  <path class="cls-3" d="M1171.51,1236.11c-44.86,25.69-85.84,39.01-133.24,55.94-3.94,164.85-2.65,323.53,6.54,486.6,1.96,34.81,35.51,65.4,73.88,60.42,143.76-18.68,285.63-74.83,396-174.47,30.04-27.12,7.67-81.65-15.64-104.7l-327.54-323.79Z"/>
  <circle class="cls-3" cx="1000" cy="1010.97" r="100.22"/>
</svg>